English audio

Input #0, avi, from 'Videos/TheyCallMeLucky-xvid-1973.byraphalv.avi':
  Metadata:
    encoder         : Lavf52.111.0
    encoded_by      : raphalv
  Duration: 01:39:00.27, start: 0.000000, bitrate: 1414 kb/s
    Stream #0.0: Video: mpeg4, yuv420p, 640x272 [PAR 17:30 DAR 4:3], 23.98 tbr, 23.98 tbn, 23.98 tbc
    Stream #0.1: Audio: mp3, 48000 Hz, stereo, s16, 128 kb/s